<mxfile host="app.diagrams.net" modified="2022-07-06T09:47:20.566Z" agent="5.0 (Windows NT 10.0; Win64; x64) AppleWebKit/537.36 (KHTML, like Gecko) Chrome/103.0.0.0 Safari/537.36" etag="rMG4e4M6-j-jdCQLf2PU" version="20.0.3" type="github" pages="2">
  <diagram id="C5RBs43oDa-KdzZeNtuy" name="Page-1">
    <mxGraphModel dx="782" dy="436" grid="1" gridSize="10" guides="1" tooltips="1" connect="1" arrows="1" fold="1" page="1" pageScale="1" pageWidth="827" pageHeight="1169" math="0" shadow="0">
      <root>
        <mxCell id="WIyWlLk6GJQsqaUBKTNV-0" />
        <mxCell id="WIyWlLk6GJQsqaUBKTNV-1" parent="WIyWlLk6GJQsqaUBKTNV-0" />
        <mxCell id="WIyWlLk6GJQsqaUBKTNV-2" value="" style="rounded=0;html=1;jettySize=auto;orthogonalLoop=1;fontSize=11;endArrow=block;endFill=0;endSize=8;strokeWidth=1;shadow=0;labelBackgroundColor=none;edgeStyle=orthogonalEdgeStyle;" parent="WIyWlLk6GJQsqaUBKTNV-1" source="WIyWlLk6GJQsqaUBKTNV-3" target="WIyWlLk6GJQsqaUBKTNV-6" edge="1">
          <mxGeometry relative="1" as="geometry" />
        </mxCell>
        <mxCell id="WIyWlLk6GJQsqaUBKTNV-3" value="土地回收信息管理" style="rounded=1;whiteSpace=wrap;html=1;fontSize=12;glass=0;strokeWidth=1;shadow=0;" parent="WIyWlLk6GJQsqaUBKTNV-1" vertex="1">
          <mxGeometry x="45" y="70" width="120" height="40" as="geometry" />
        </mxCell>
        <mxCell id="WIyWlLk6GJQsqaUBKTNV-4" value="Yes" style="rounded=0;html=1;jettySize=auto;orthogonalLoop=1;fontSize=11;endArrow=block;endFill=0;endSize=8;strokeWidth=1;shadow=0;labelBackgroundColor=none;edgeStyle=orthogonalEdgeStyle;entryX=0.5;entryY=0;entryDx=0;entryDy=0;" parent="WIyWlLk6GJQsqaUBKTNV-1" source="WIyWlLk6GJQsqaUBKTNV-6" target="WIyWlLk6GJQsqaUBKTNV-11" edge="1">
          <mxGeometry y="20" relative="1" as="geometry">
            <mxPoint as="offset" />
            <mxPoint x="105" y="270.0000000000001" as="targetPoint" />
          </mxGeometry>
        </mxCell>
        <mxCell id="WIyWlLk6GJQsqaUBKTNV-5" value="No" style="edgeStyle=orthogonalEdgeStyle;rounded=0;html=1;jettySize=auto;orthogonalLoop=1;fontSize=11;endArrow=block;endFill=0;endSize=8;strokeWidth=1;shadow=0;labelBackgroundColor=none;" parent="WIyWlLk6GJQsqaUBKTNV-1" source="WIyWlLk6GJQsqaUBKTNV-6" target="WIyWlLk6GJQsqaUBKTNV-7" edge="1">
          <mxGeometry y="10" relative="1" as="geometry">
            <mxPoint as="offset" />
          </mxGeometry>
        </mxCell>
        <mxCell id="WIyWlLk6GJQsqaUBKTNV-6" value="用户具备查看权限" style="rhombus;whiteSpace=wrap;html=1;shadow=0;fontFamily=Helvetica;fontSize=12;align=center;strokeWidth=1;spacing=6;spacingTop=-4;" parent="WIyWlLk6GJQsqaUBKTNV-1" vertex="1">
          <mxGeometry x="35" y="150" width="140" height="70" as="geometry" />
        </mxCell>
        <mxCell id="WIyWlLk6GJQsqaUBKTNV-7" value="拒绝操作" style="rounded=1;whiteSpace=wrap;html=1;fontSize=12;glass=0;strokeWidth=1;shadow=0;" parent="WIyWlLk6GJQsqaUBKTNV-1" vertex="1">
          <mxGeometry x="370" y="165" width="120" height="40" as="geometry" />
        </mxCell>
        <mxCell id="WIyWlLk6GJQsqaUBKTNV-11" value="展示土地回收信息列表" style="rounded=1;whiteSpace=wrap;html=1;fontSize=12;glass=0;strokeWidth=1;shadow=0;" parent="WIyWlLk6GJQsqaUBKTNV-1" vertex="1">
          <mxGeometry x="40" y="260" width="130" height="40" as="geometry" />
        </mxCell>
        <mxCell id="LCtXw3wCYbTiEyA-j1we-2" value="" style="rounded=0;html=1;jettySize=auto;orthogonalLoop=1;fontSize=11;endArrow=block;endFill=0;endSize=8;strokeWidth=1;shadow=0;labelBackgroundColor=none;edgeStyle=orthogonalEdgeStyle;exitX=0.5;exitY=1;exitDx=0;exitDy=0;" parent="WIyWlLk6GJQsqaUBKTNV-1" source="WIyWlLk6GJQsqaUBKTNV-11" target="LCtXw3wCYbTiEyA-j1we-3" edge="1">
          <mxGeometry relative="1" as="geometry">
            <mxPoint x="125" y="120" as="sourcePoint" />
            <mxPoint x="105" y="350" as="targetPoint" />
          </mxGeometry>
        </mxCell>
        <mxCell id="LCtXw3wCYbTiEyA-j1we-3" value="用户进行操作" style="rhombus;whiteSpace=wrap;html=1;" parent="WIyWlLk6GJQsqaUBKTNV-1" vertex="1">
          <mxGeometry x="30" y="370" width="150" height="60" as="geometry" />
        </mxCell>
        <mxCell id="LCtXw3wCYbTiEyA-j1we-4" value="新增土地回收信息" style="rounded=1;whiteSpace=wrap;html=1;" parent="WIyWlLk6GJQsqaUBKTNV-1" vertex="1">
          <mxGeometry x="235" y="300" width="110" height="40" as="geometry" />
        </mxCell>
        <mxCell id="LCtXw3wCYbTiEyA-j1we-6" value="修改土地回收信息" style="rounded=1;whiteSpace=wrap;html=1;" parent="WIyWlLk6GJQsqaUBKTNV-1" vertex="1">
          <mxGeometry x="235" y="380" width="110" height="40" as="geometry" />
        </mxCell>
        <mxCell id="LCtXw3wCYbTiEyA-j1we-7" value="删除土地回收信息" style="rounded=1;whiteSpace=wrap;html=1;" parent="WIyWlLk6GJQsqaUBKTNV-1" vertex="1">
          <mxGeometry x="235" y="460" width="110" height="40" as="geometry" />
        </mxCell>
        <mxCell id="LCtXw3wCYbTiEyA-j1we-9" value="" style="rounded=0;html=1;jettySize=auto;orthogonalLoop=1;fontSize=11;endArrow=block;endFill=0;endSize=8;strokeWidth=1;shadow=0;labelBackgroundColor=none;edgeStyle=orthogonalEdgeStyle;exitX=1;exitY=0.5;exitDx=0;exitDy=0;entryX=0;entryY=0.5;entryDx=0;entryDy=0;" parent="WIyWlLk6GJQsqaUBKTNV-1" source="LCtXw3wCYbTiEyA-j1we-3" target="LCtXw3wCYbTiEyA-j1we-4" edge="1">
          <mxGeometry relative="1" as="geometry">
            <mxPoint x="115" y="310.0000000000001" as="sourcePoint" />
            <mxPoint x="115" y="360.0000000000001" as="targetPoint" />
            <Array as="points">
              <mxPoint x="205" y="400" />
              <mxPoint x="205" y="320" />
            </Array>
          </mxGeometry>
        </mxCell>
        <mxCell id="LCtXw3wCYbTiEyA-j1we-10" value="" style="rounded=0;html=1;jettySize=auto;orthogonalLoop=1;fontSize=11;endArrow=block;endFill=0;endSize=8;strokeWidth=1;shadow=0;labelBackgroundColor=none;edgeStyle=orthogonalEdgeStyle;exitX=1;exitY=0.5;exitDx=0;exitDy=0;entryX=0;entryY=0.5;entryDx=0;entryDy=0;" parent="WIyWlLk6GJQsqaUBKTNV-1" source="LCtXw3wCYbTiEyA-j1we-3" target="LCtXw3wCYbTiEyA-j1we-6" edge="1">
          <mxGeometry relative="1" as="geometry">
            <mxPoint x="190" y="390.0000000000001" as="sourcePoint" />
            <mxPoint x="210" y="410" as="targetPoint" />
            <Array as="points">
              <mxPoint x="200" y="400" />
              <mxPoint x="200" y="400" />
            </Array>
          </mxGeometry>
        </mxCell>
        <mxCell id="LCtXw3wCYbTiEyA-j1we-11" value="" style="rounded=0;html=1;jettySize=auto;orthogonalLoop=1;fontSize=11;endArrow=block;endFill=0;endSize=8;strokeWidth=1;shadow=0;labelBackgroundColor=none;edgeStyle=orthogonalEdgeStyle;exitX=1;exitY=0.5;exitDx=0;exitDy=0;entryX=0;entryY=0.5;entryDx=0;entryDy=0;" parent="WIyWlLk6GJQsqaUBKTNV-1" source="LCtXw3wCYbTiEyA-j1we-3" target="LCtXw3wCYbTiEyA-j1we-7" edge="1">
          <mxGeometry relative="1" as="geometry">
            <mxPoint x="190" y="390.0000000000001" as="sourcePoint" />
            <mxPoint x="245" y="390.0000000000001" as="targetPoint" />
            <Array as="points">
              <mxPoint x="205" y="400" />
              <mxPoint x="205" y="480" />
            </Array>
          </mxGeometry>
        </mxCell>
        <mxCell id="LCtXw3wCYbTiEyA-j1we-13" value="具备新增权限" style="rhombus;whiteSpace=wrap;html=1;" parent="WIyWlLk6GJQsqaUBKTNV-1" vertex="1">
          <mxGeometry x="380" y="295" width="100" height="50" as="geometry" />
        </mxCell>
        <mxCell id="LCtXw3wCYbTiEyA-j1we-15" value="具备修改权限" style="rhombus;whiteSpace=wrap;html=1;" parent="WIyWlLk6GJQsqaUBKTNV-1" vertex="1">
          <mxGeometry x="380" y="375" width="100" height="50" as="geometry" />
        </mxCell>
        <mxCell id="LCtXw3wCYbTiEyA-j1we-16" value="具备删除权限" style="rhombus;whiteSpace=wrap;html=1;" parent="WIyWlLk6GJQsqaUBKTNV-1" vertex="1">
          <mxGeometry x="380" y="455" width="100" height="50" as="geometry" />
        </mxCell>
        <mxCell id="LCtXw3wCYbTiEyA-j1we-17" value="" style="rounded=0;html=1;jettySize=auto;orthogonalLoop=1;fontSize=11;endArrow=block;endFill=0;endSize=8;strokeWidth=1;shadow=0;labelBackgroundColor=none;edgeStyle=orthogonalEdgeStyle;exitX=1;exitY=0.5;exitDx=0;exitDy=0;entryX=0;entryY=0.5;entryDx=0;entryDy=0;" parent="WIyWlLk6GJQsqaUBKTNV-1" source="LCtXw3wCYbTiEyA-j1we-4" target="LCtXw3wCYbTiEyA-j1we-13" edge="1">
          <mxGeometry relative="1" as="geometry">
            <mxPoint x="190" y="390.0000000000001" as="sourcePoint" />
            <mxPoint x="245" y="390.0000000000001" as="targetPoint" />
            <Array as="points">
              <mxPoint x="355" y="320" />
              <mxPoint x="355" y="320" />
            </Array>
          </mxGeometry>
        </mxCell>
        <mxCell id="LCtXw3wCYbTiEyA-j1we-18" value="" style="rounded=0;html=1;jettySize=auto;orthogonalLoop=1;fontSize=11;endArrow=block;endFill=0;endSize=8;strokeWidth=1;shadow=0;labelBackgroundColor=none;edgeStyle=orthogonalEdgeStyle;exitX=1;exitY=0.5;exitDx=0;exitDy=0;" parent="WIyWlLk6GJQsqaUBKTNV-1" source="LCtXw3wCYbTiEyA-j1we-6" target="LCtXw3wCYbTiEyA-j1we-15" edge="1">
          <mxGeometry relative="1" as="geometry">
            <mxPoint x="355.0000000000002" y="330.0000000000001" as="sourcePoint" />
            <mxPoint x="375" y="380" as="targetPoint" />
            <Array as="points" />
          </mxGeometry>
        </mxCell>
        <mxCell id="LCtXw3wCYbTiEyA-j1we-19" value="" style="rounded=0;html=1;jettySize=auto;orthogonalLoop=1;fontSize=11;endArrow=block;endFill=0;endSize=8;strokeWidth=1;shadow=0;labelBackgroundColor=none;edgeStyle=orthogonalEdgeStyle;exitX=1;exitY=0.5;exitDx=0;exitDy=0;entryX=0;entryY=0.5;entryDx=0;entryDy=0;" parent="WIyWlLk6GJQsqaUBKTNV-1" source="LCtXw3wCYbTiEyA-j1we-7" target="LCtXw3wCYbTiEyA-j1we-16" edge="1">
          <mxGeometry relative="1" as="geometry">
            <mxPoint x="365.0000000000002" y="340.0000000000001" as="sourcePoint" />
            <mxPoint x="394.9999999999998" y="340.0000000000001" as="targetPoint" />
            <Array as="points">
              <mxPoint x="360" y="480" />
              <mxPoint x="360" y="480" />
            </Array>
          </mxGeometry>
        </mxCell>
        <mxCell id="LCtXw3wCYbTiEyA-j1we-22" value="展示原有信息" style="rounded=1;whiteSpace=wrap;html=1;" parent="WIyWlLk6GJQsqaUBKTNV-1" vertex="1">
          <mxGeometry x="550" y="380" width="110" height="40" as="geometry" />
        </mxCell>
        <mxCell id="LCtXw3wCYbTiEyA-j1we-23" value="Yes" style="rounded=0;html=1;jettySize=auto;orthogonalLoop=1;fontSize=11;endArrow=block;endFill=0;endSize=8;strokeWidth=1;shadow=0;labelBackgroundColor=none;edgeStyle=orthogonalEdgeStyle;entryX=0;entryY=0.5;entryDx=0;entryDy=0;exitX=1;exitY=0.5;exitDx=0;exitDy=0;" parent="WIyWlLk6GJQsqaUBKTNV-1" source="LCtXw3wCYbTiEyA-j1we-15" target="LCtXw3wCYbTiEyA-j1we-22" edge="1">
          <mxGeometry x="0.1429" y="10" relative="1" as="geometry">
            <mxPoint as="offset" />
            <mxPoint x="115" y="230" as="sourcePoint" />
            <mxPoint x="115" y="270.0000000000001" as="targetPoint" />
          </mxGeometry>
        </mxCell>
        <mxCell id="LCtXw3wCYbTiEyA-j1we-24" value="删除并记录日志" style="rounded=1;whiteSpace=wrap;html=1;" parent="WIyWlLk6GJQsqaUBKTNV-1" vertex="1">
          <mxGeometry x="550" y="460" width="110" height="40" as="geometry" />
        </mxCell>
        <mxCell id="LCtXw3wCYbTiEyA-j1we-25" value="Yes" style="rounded=0;html=1;jettySize=auto;orthogonalLoop=1;fontSize=11;endArrow=block;endFill=0;endSize=8;strokeWidth=1;shadow=0;labelBackgroundColor=none;edgeStyle=orthogonalEdgeStyle;entryX=0;entryY=0.5;entryDx=0;entryDy=0;exitX=1;exitY=0.5;exitDx=0;exitDy=0;" parent="WIyWlLk6GJQsqaUBKTNV-1" source="LCtXw3wCYbTiEyA-j1we-16" target="LCtXw3wCYbTiEyA-j1we-24" edge="1">
          <mxGeometry y="20" relative="1" as="geometry">
            <mxPoint as="offset" />
            <mxPoint x="489.9999999999998" y="405.0000000000001" as="sourcePoint" />
            <mxPoint x="559.9999999999998" y="405.0000000000001" as="targetPoint" />
          </mxGeometry>
        </mxCell>
        <mxCell id="LCtXw3wCYbTiEyA-j1we-26" value="填写土地回收信息" style="rounded=1;whiteSpace=wrap;html=1;" parent="WIyWlLk6GJQsqaUBKTNV-1" vertex="1">
          <mxGeometry x="550" y="300" width="110" height="40" as="geometry" />
        </mxCell>
        <mxCell id="LCtXw3wCYbTiEyA-j1we-27" value="" style="rounded=0;html=1;jettySize=auto;orthogonalLoop=1;fontSize=11;endArrow=block;endFill=0;endSize=8;strokeWidth=1;shadow=0;labelBackgroundColor=none;edgeStyle=orthogonalEdgeStyle;exitX=0.5;exitY=0;exitDx=0;exitDy=0;entryX=0.5;entryY=1;entryDx=0;entryDy=0;" parent="WIyWlLk6GJQsqaUBKTNV-1" source="LCtXw3wCYbTiEyA-j1we-22" target="LCtXw3wCYbTiEyA-j1we-26" edge="1">
          <mxGeometry relative="1" as="geometry">
            <mxPoint x="355.0000000000002" y="330.0000000000001" as="sourcePoint" />
            <mxPoint x="740" y="400" as="targetPoint" />
            <Array as="points">
              <mxPoint x="605" y="370" />
              <mxPoint x="605" y="370" />
            </Array>
          </mxGeometry>
        </mxCell>
        <mxCell id="LCtXw3wCYbTiEyA-j1we-28" value="Yes" style="rounded=0;html=1;jettySize=auto;orthogonalLoop=1;fontSize=11;endArrow=block;endFill=0;endSize=8;strokeWidth=1;shadow=0;labelBackgroundColor=none;edgeStyle=orthogonalEdgeStyle;entryX=0;entryY=0.5;entryDx=0;entryDy=0;exitX=1;exitY=0.5;exitDx=0;exitDy=0;" parent="WIyWlLk6GJQsqaUBKTNV-1" source="LCtXw3wCYbTiEyA-j1we-13" target="LCtXw3wCYbTiEyA-j1we-26" edge="1">
          <mxGeometry x="0.1429" y="10" relative="1" as="geometry">
            <mxPoint as="offset" />
            <mxPoint x="489.9999999999998" y="410.0000000000001" as="sourcePoint" />
            <mxPoint x="559.9999999999998" y="410.0000000000001" as="targetPoint" />
          </mxGeometry>
        </mxCell>
        <mxCell id="LCtXw3wCYbTiEyA-j1we-29" value="No" style="edgeStyle=orthogonalEdgeStyle;rounded=0;html=1;jettySize=auto;orthogonalLoop=1;fontSize=11;endArrow=block;endFill=0;endSize=8;strokeWidth=1;shadow=0;labelBackgroundColor=none;exitX=0.5;exitY=0;exitDx=0;exitDy=0;entryX=0.5;entryY=1;entryDx=0;entryDy=0;" parent="WIyWlLk6GJQsqaUBKTNV-1" source="LCtXw3wCYbTiEyA-j1we-13" target="WIyWlLk6GJQsqaUBKTNV-7" edge="1">
          <mxGeometry x="-0.6667" y="20" relative="1" as="geometry">
            <mxPoint as="offset" />
            <mxPoint x="185" y="195" as="sourcePoint" />
            <mxPoint x="379.9999999999998" y="195" as="targetPoint" />
          </mxGeometry>
        </mxCell>
        <mxCell id="LCtXw3wCYbTiEyA-j1we-30" value="No" style="edgeStyle=orthogonalEdgeStyle;rounded=0;html=1;jettySize=auto;orthogonalLoop=1;fontSize=11;endArrow=block;endFill=0;endSize=8;strokeWidth=1;shadow=0;labelBackgroundColor=none;exitX=1;exitY=0;exitDx=0;exitDy=0;entryX=0.5;entryY=1;entryDx=0;entryDy=0;" parent="WIyWlLk6GJQsqaUBKTNV-1" source="LCtXw3wCYbTiEyA-j1we-15" target="WIyWlLk6GJQsqaUBKTNV-7" edge="1">
          <mxGeometry x="-0.7143" y="10" relative="1" as="geometry">
            <mxPoint as="offset" />
            <mxPoint x="439.9999999999998" y="305.0000000000001" as="sourcePoint" />
            <mxPoint x="439.9999999999998" y="215" as="targetPoint" />
            <Array as="points">
              <mxPoint x="455" y="360" />
              <mxPoint x="500" y="360" />
              <mxPoint x="500" y="260" />
              <mxPoint x="430" y="260" />
            </Array>
          </mxGeometry>
        </mxCell>
        <mxCell id="LCtXw3wCYbTiEyA-j1we-31" value="No" style="edgeStyle=orthogonalEdgeStyle;rounded=0;html=1;jettySize=auto;orthogonalLoop=1;fontSize=11;endArrow=block;endFill=0;endSize=8;strokeWidth=1;shadow=0;labelBackgroundColor=none;exitX=1;exitY=0;exitDx=0;exitDy=0;entryX=0.5;entryY=1;entryDx=0;entryDy=0;" parent="WIyWlLk6GJQsqaUBKTNV-1" source="LCtXw3wCYbTiEyA-j1we-16" target="WIyWlLk6GJQsqaUBKTNV-7" edge="1">
          <mxGeometry x="-0.7218" y="10" relative="1" as="geometry">
            <mxPoint as="offset" />
            <mxPoint x="185" y="195" as="sourcePoint" />
            <mxPoint x="379.9999999999998" y="195" as="targetPoint" />
            <Array as="points">
              <mxPoint x="455" y="440" />
              <mxPoint x="500" y="440" />
              <mxPoint x="500" y="260" />
              <mxPoint x="430" y="260" />
            </Array>
          </mxGeometry>
        </mxCell>
        <mxCell id="LCtXw3wCYbTiEyA-j1we-32" value="" style="rounded=0;html=1;jettySize=auto;orthogonalLoop=1;fontSize=11;endArrow=block;endFill=0;endSize=8;strokeWidth=1;shadow=0;labelBackgroundColor=none;edgeStyle=orthogonalEdgeStyle;exitX=1;exitY=0.5;exitDx=0;exitDy=0;entryX=0;entryY=0.5;entryDx=0;entryDy=0;" parent="WIyWlLk6GJQsqaUBKTNV-1" source="LCtXw3wCYbTiEyA-j1we-26" target="LCtXw3wCYbTiEyA-j1we-33" edge="1">
          <mxGeometry relative="1" as="geometry">
            <mxPoint x="115" y="110" as="sourcePoint" />
            <mxPoint x="810" y="380" as="targetPoint" />
          </mxGeometry>
        </mxCell>
        <mxCell id="LCtXw3wCYbTiEyA-j1we-33" value="提交并记录日志" style="rounded=1;whiteSpace=wrap;html=1;" parent="WIyWlLk6GJQsqaUBKTNV-1" vertex="1">
          <mxGeometry x="710" y="300" width="110" height="40" as="geometry" />
        </mxCell>
        <mxCell id="LCtXw3wCYbTiEyA-j1we-35" value="开始" style="ellipse;whiteSpace=wrap;html=1;" parent="WIyWlLk6GJQsqaUBKTNV-1" vertex="1">
          <mxGeometry x="70" width="70" height="40" as="geometry" />
        </mxCell>
        <mxCell id="LCtXw3wCYbTiEyA-j1we-36" value="结束" style="ellipse;whiteSpace=wrap;html=1;" parent="WIyWlLk6GJQsqaUBKTNV-1" vertex="1">
          <mxGeometry x="730" y="165" width="70" height="40" as="geometry" />
        </mxCell>
        <mxCell id="LCtXw3wCYbTiEyA-j1we-37" value="" style="rounded=0;html=1;jettySize=auto;orthogonalLoop=1;fontSize=11;endArrow=block;endFill=0;endSize=8;strokeWidth=1;shadow=0;labelBackgroundColor=none;edgeStyle=orthogonalEdgeStyle;exitX=0.5;exitY=1;exitDx=0;exitDy=0;entryX=0.5;entryY=0;entryDx=0;entryDy=0;" parent="WIyWlLk6GJQsqaUBKTNV-1" source="LCtXw3wCYbTiEyA-j1we-35" target="WIyWlLk6GJQsqaUBKTNV-3" edge="1">
          <mxGeometry relative="1" as="geometry">
            <mxPoint x="115" y="110" as="sourcePoint" />
            <mxPoint x="115" y="160" as="targetPoint" />
          </mxGeometry>
        </mxCell>
        <mxCell id="LCtXw3wCYbTiEyA-j1we-38" value="" style="rounded=0;html=1;jettySize=auto;orthogonalLoop=1;fontSize=11;endArrow=block;endFill=0;endSize=8;strokeWidth=1;shadow=0;labelBackgroundColor=none;edgeStyle=orthogonalEdgeStyle;exitX=1;exitY=0.5;exitDx=0;exitDy=0;entryX=0;entryY=0.5;entryDx=0;entryDy=0;" parent="WIyWlLk6GJQsqaUBKTNV-1" source="WIyWlLk6GJQsqaUBKTNV-7" target="LCtXw3wCYbTiEyA-j1we-36" edge="1">
          <mxGeometry relative="1" as="geometry">
            <mxPoint x="125" y="120" as="sourcePoint" />
            <mxPoint x="125" y="170" as="targetPoint" />
          </mxGeometry>
        </mxCell>
        <mxCell id="LCtXw3wCYbTiEyA-j1we-39" value="" style="rounded=0;html=1;jettySize=auto;orthogonalLoop=1;fontSize=11;endArrow=block;endFill=0;endSize=8;strokeWidth=1;shadow=0;labelBackgroundColor=none;edgeStyle=orthogonalEdgeStyle;exitX=0.5;exitY=0;exitDx=0;exitDy=0;entryX=0.5;entryY=1;entryDx=0;entryDy=0;" parent="WIyWlLk6GJQsqaUBKTNV-1" source="LCtXw3wCYbTiEyA-j1we-33" target="LCtXw3wCYbTiEyA-j1we-36" edge="1">
          <mxGeometry relative="1" as="geometry">
            <mxPoint x="669.9999999999998" y="330.0000000000001" as="sourcePoint" />
            <mxPoint x="719.9999999999998" y="330.0000000000001" as="targetPoint" />
          </mxGeometry>
        </mxCell>
        <mxCell id="LCtXw3wCYbTiEyA-j1we-40" value="" style="rounded=0;html=1;jettySize=auto;orthogonalLoop=1;fontSize=11;endArrow=block;endFill=0;endSize=8;strokeWidth=1;shadow=0;labelBackgroundColor=none;edgeStyle=orthogonalEdgeStyle;exitX=1;exitY=0.5;exitDx=0;exitDy=0;entryX=0.5;entryY=1;entryDx=0;entryDy=0;" parent="WIyWlLk6GJQsqaUBKTNV-1" source="LCtXw3wCYbTiEyA-j1we-24" target="LCtXw3wCYbTiEyA-j1we-36" edge="1">
          <mxGeometry relative="1" as="geometry">
            <mxPoint x="679.9999999999998" y="340.0000000000001" as="sourcePoint" />
            <mxPoint x="770" y="210" as="targetPoint" />
            <Array as="points">
              <mxPoint x="680" y="480" />
              <mxPoint x="680" y="260" />
              <mxPoint x="765" y="260" />
            </Array>
          </mxGeometry>
        </mxCell>
      </root>
    </mxGraphModel>
  </diagram>
  <diagram id="-byfW01rEhqCDcMgNEz4" name="Page-2">
    <mxGraphModel dx="782" dy="380" grid="1" gridSize="10" guides="1" tooltips="1" connect="1" arrows="1" fold="1" page="1" pageScale="1" pageWidth="827" pageHeight="1169" math="0" shadow="0">
      <root>
        <mxCell id="0" />
        <mxCell id="1" parent="0" />
        <mxCell id="aEKwAZtk2zb0L5Yq_iMu-10" value="表示层" style="swimlane;" vertex="1" parent="1">
          <mxGeometry x="280" y="10" width="300" height="80" as="geometry" />
        </mxCell>
        <mxCell id="aEKwAZtk2zb0L5Yq_iMu-12" value="HTML, CSS, JavaScript, ThymeLeaf" style="text;html=1;align=center;verticalAlign=middle;resizable=0;points=[];autosize=1;strokeColor=none;fillColor=none;" vertex="1" parent="aEKwAZtk2zb0L5Yq_iMu-10">
          <mxGeometry x="40" y="40" width="220" height="30" as="geometry" />
        </mxCell>
        <mxCell id="aEKwAZtk2zb0L5Yq_iMu-13" value="控制层" style="swimlane;" vertex="1" parent="1">
          <mxGeometry x="280" y="120" width="180" height="80" as="geometry">
            <mxRectangle x="280" y="120" width="80" height="30" as="alternateBounds" />
          </mxGeometry>
        </mxCell>
        <mxCell id="aEKwAZtk2zb0L5Yq_iMu-14" value="Controller" style="text;html=1;align=center;verticalAlign=middle;resizable=0;points=[];autosize=1;strokeColor=none;fillColor=none;" vertex="1" parent="aEKwAZtk2zb0L5Yq_iMu-13">
          <mxGeometry x="50" y="40" width="80" height="30" as="geometry" />
        </mxCell>
        <mxCell id="aEKwAZtk2zb0L5Yq_iMu-15" value="业务逻辑层" style="swimlane;" vertex="1" parent="1">
          <mxGeometry x="280" y="230" width="180" height="80" as="geometry" />
        </mxCell>
        <mxCell id="aEKwAZtk2zb0L5Yq_iMu-16" value="Service" style="text;html=1;align=center;verticalAlign=middle;resizable=0;points=[];autosize=1;strokeColor=none;fillColor=none;" vertex="1" parent="aEKwAZtk2zb0L5Yq_iMu-15">
          <mxGeometry x="60" y="40" width="60" height="30" as="geometry" />
        </mxCell>
        <mxCell id="aEKwAZtk2zb0L5Yq_iMu-17" value="持久化层" style="swimlane;" vertex="1" parent="1">
          <mxGeometry x="280" y="340" width="180" height="80" as="geometry" />
        </mxCell>
        <mxCell id="aEKwAZtk2zb0L5Yq_iMu-18" value="DAO, DB" style="text;html=1;align=center;verticalAlign=middle;resizable=0;points=[];autosize=1;strokeColor=none;fillColor=none;" vertex="1" parent="aEKwAZtk2zb0L5Yq_iMu-17">
          <mxGeometry x="55" y="40" width="70" height="30" as="geometry" />
        </mxCell>
        <mxCell id="aEKwAZtk2zb0L5Yq_iMu-19" value="公共基础" style="swimlane;" vertex="1" parent="1">
          <mxGeometry x="490" y="120" width="90" height="300" as="geometry" />
        </mxCell>
        <mxCell id="aEKwAZtk2zb0L5Yq_iMu-21" value="D-BaaS平台" style="text;html=1;strokeColor=none;fillColor=none;align=center;verticalAlign=middle;whiteSpace=wrap;rounded=0;" vertex="1" parent="aEKwAZtk2zb0L5Yq_iMu-19">
          <mxGeometry x="7.5" y="50" width="75" height="30" as="geometry" />
        </mxCell>
        <mxCell id="aEKwAZtk2zb0L5Yq_iMu-22" value="&lt;div data-docx-has-block-data=&quot;false&quot; data-page-id=&quot;doxcnXTw12kDMMco2AEQaZOEjWh&quot;&gt;&lt;div class=&quot;old-record-id-doxcnaWSK2wu8Mky4MXtQYUJPQh&quot;&gt;Ethereum&lt;/div&gt;&lt;/div&gt;" style="text;html=1;strokeColor=none;fillColor=none;align=center;verticalAlign=middle;whiteSpace=wrap;rounded=0;" vertex="1" parent="aEKwAZtk2zb0L5Yq_iMu-19">
          <mxGeometry x="15" y="110" width="60" height="30" as="geometry" />
        </mxCell>
        <mxCell id="aEKwAZtk2zb0L5Yq_iMu-23" value="DApp" style="text;html=1;strokeColor=none;fillColor=none;align=center;verticalAlign=middle;whiteSpace=wrap;rounded=0;" vertex="1" parent="aEKwAZtk2zb0L5Yq_iMu-19">
          <mxGeometry x="15" y="180" width="60" height="30" as="geometry" />
        </mxCell>
        <mxCell id="aEKwAZtk2zb0L5Yq_iMu-24" value="" style="shape=flexArrow;endArrow=classic;html=1;rounded=0;exitX=0.25;exitY=1;exitDx=0;exitDy=0;entryX=0.417;entryY=0;entryDx=0;entryDy=0;entryPerimeter=0;" edge="1" parent="1" source="aEKwAZtk2zb0L5Yq_iMu-10" target="aEKwAZtk2zb0L5Yq_iMu-13">
          <mxGeometry width="50" height="50" relative="1" as="geometry">
            <mxPoint x="380" y="160" as="sourcePoint" />
            <mxPoint x="430" y="110" as="targetPoint" />
          </mxGeometry>
        </mxCell>
        <mxCell id="aEKwAZtk2zb0L5Yq_iMu-27" value="" style="shape=flexArrow;endArrow=classic;html=1;rounded=0;" edge="1" parent="1">
          <mxGeometry width="50" height="50" relative="1" as="geometry">
            <mxPoint x="360" y="200" as="sourcePoint" />
            <mxPoint x="360" y="230" as="targetPoint" />
          </mxGeometry>
        </mxCell>
        <mxCell id="aEKwAZtk2zb0L5Yq_iMu-29" value="" style="shape=flexArrow;endArrow=classic;html=1;rounded=0;" edge="1" parent="1">
          <mxGeometry width="50" height="50" relative="1" as="geometry">
            <mxPoint x="360" y="310" as="sourcePoint" />
            <mxPoint x="360" y="340" as="targetPoint" />
          </mxGeometry>
        </mxCell>
        <mxCell id="aEKwAZtk2zb0L5Yq_iMu-33" value="&lt;span style=&quot;background-color: initial;&quot;&gt;Client&lt;/span&gt;" style="verticalAlign=top;align=center;spacingTop=8;spacingLeft=2;spacingRight=12;shape=cube;size=10;direction=south;fontStyle=4;html=1;" vertex="1" parent="1">
          <mxGeometry x="207" y="530" width="100" height="60" as="geometry" />
        </mxCell>
        <mxCell id="aEKwAZtk2zb0L5Yq_iMu-34" value="基于D-BaaS电商平台部署" style="shape=umlFrame;whiteSpace=wrap;html=1;width=160;height=30;" vertex="1" parent="1">
          <mxGeometry x="187" y="460" width="393" height="270" as="geometry" />
        </mxCell>
        <mxCell id="aEKwAZtk2zb0L5Yq_iMu-35" value="&lt;span style=&quot;background-color: initial;&quot;&gt;Web Server&lt;/span&gt;" style="verticalAlign=top;align=center;spacingTop=8;spacingLeft=2;spacingRight=12;shape=cube;size=10;direction=south;fontStyle=4;html=1;" vertex="1" parent="1">
          <mxGeometry x="377" y="520" width="100" height="60" as="geometry" />
        </mxCell>
        <mxCell id="aEKwAZtk2zb0L5Yq_iMu-36" value="&lt;span style=&quot;background-color: initial;&quot;&gt;Database &lt;br&gt;Server&lt;/span&gt;" style="verticalAlign=top;align=center;spacingTop=8;spacingLeft=2;spacingRight=12;shape=cube;size=10;direction=south;fontStyle=4;html=1;" vertex="1" parent="1">
          <mxGeometry x="287" y="630" width="100" height="60" as="geometry" />
        </mxCell>
        <mxCell id="aEKwAZtk2zb0L5Yq_iMu-37" value="D-BaaS&lt;br&gt;Platform" style="verticalAlign=top;align=center;spacingTop=8;spacingLeft=2;spacingRight=12;shape=cube;size=10;direction=south;fontStyle=4;html=1;" vertex="1" parent="1">
          <mxGeometry x="457" y="630" width="100" height="60" as="geometry" />
        </mxCell>
        <mxCell id="aEKwAZtk2zb0L5Yq_iMu-39" value="http" style="endArrow=none;html=1;rounded=0;entryX=0;entryY=0;entryDx=25;entryDy=0;entryPerimeter=0;exitX=0;exitY=0;exitDx=35;exitDy=100;exitPerimeter=0;" edge="1" parent="1" source="aEKwAZtk2zb0L5Yq_iMu-35" target="aEKwAZtk2zb0L5Yq_iMu-33">
          <mxGeometry width="50" height="50" relative="1" as="geometry">
            <mxPoint x="307" y="620" as="sourcePoint" />
            <mxPoint x="67" y="650" as="targetPoint" />
          </mxGeometry>
        </mxCell>
        <mxCell id="aEKwAZtk2zb0L5Yq_iMu-40" value="ado" style="endArrow=none;html=1;rounded=0;entryX=1;entryY=1;entryDx=0;entryDy=0;entryPerimeter=0;exitX=0;exitY=0;exitDx=0;exitDy=45;exitPerimeter=0;" edge="1" parent="1" source="aEKwAZtk2zb0L5Yq_iMu-36" target="aEKwAZtk2zb0L5Yq_iMu-35">
          <mxGeometry width="50" height="50" relative="1" as="geometry">
            <mxPoint x="307" y="620" as="sourcePoint" />
            <mxPoint x="357" y="570" as="targetPoint" />
          </mxGeometry>
        </mxCell>
        <mxCell id="aEKwAZtk2zb0L5Yq_iMu-41" value="http" style="endArrow=none;html=1;rounded=0;entryX=0;entryY=0;entryDx=60;entryDy=10;entryPerimeter=0;exitX=0;exitY=0;exitDx=0;exitDy=45;exitPerimeter=0;" edge="1" parent="1" source="aEKwAZtk2zb0L5Yq_iMu-37" target="aEKwAZtk2zb0L5Yq_iMu-35">
          <mxGeometry width="50" height="50" relative="1" as="geometry">
            <mxPoint x="447" y="630" as="sourcePoint" />
            <mxPoint x="497" y="580" as="targetPoint" />
          </mxGeometry>
        </mxCell>
        <mxCell id="aEKwAZtk2zb0L5Yq_iMu-42" value="ThymeLeaf&lt;br&gt;界面模板" style="rounded=0;whiteSpace=wrap;html=1;" vertex="1" parent="1">
          <mxGeometry x="110" y="830" width="96" height="50" as="geometry" />
        </mxCell>
        <mxCell id="aEKwAZtk2zb0L5Yq_iMu-43" value="Springboot服务端" style="rounded=0;whiteSpace=wrap;html=1;" vertex="1" parent="1">
          <mxGeometry x="260" y="830" width="103" height="50" as="geometry" />
        </mxCell>
        <mxCell id="aEKwAZtk2zb0L5Yq_iMu-44" value="" style="endArrow=none;html=1;rounded=0;entryX=0;entryY=0.5;entryDx=0;entryDy=0;exitX=1;exitY=0.5;exitDx=0;exitDy=0;" edge="1" parent="1" source="aEKwAZtk2zb0L5Yq_iMu-42" target="aEKwAZtk2zb0L5Yq_iMu-43">
          <mxGeometry width="50" height="50" relative="1" as="geometry">
            <mxPoint x="240" y="960" as="sourcePoint" />
            <mxPoint x="290" y="910" as="targetPoint" />
          </mxGeometry>
        </mxCell>
        <mxCell id="aEKwAZtk2zb0L5Yq_iMu-45" value="D-BaaS&lt;br&gt;连接控件" style="rounded=0;whiteSpace=wrap;html=1;" vertex="1" parent="1">
          <mxGeometry x="364" y="990" width="100" height="50" as="geometry" />
        </mxCell>
        <mxCell id="aEKwAZtk2zb0L5Yq_iMu-46" value="MyBatis连接组件" style="rounded=0;whiteSpace=wrap;html=1;" vertex="1" parent="1">
          <mxGeometry x="230" y="990" width="100" height="50" as="geometry" />
        </mxCell>
        <mxCell id="aEKwAZtk2zb0L5Yq_iMu-47" value="" style="endArrow=classic;html=1;rounded=0;exitX=0.5;exitY=0;exitDx=0;exitDy=0;entryX=0.5;entryY=1;entryDx=0;entryDy=0;" edge="1" parent="1" source="aEKwAZtk2zb0L5Yq_iMu-46" target="aEKwAZtk2zb0L5Yq_iMu-43">
          <mxGeometry width="50" height="50" relative="1" as="geometry">
            <mxPoint x="220" y="970" as="sourcePoint" />
            <mxPoint x="270" y="920" as="targetPoint" />
          </mxGeometry>
        </mxCell>
        <mxCell id="aEKwAZtk2zb0L5Yq_iMu-48" value="" style="endArrow=classic;html=1;rounded=0;exitX=0.5;exitY=0;exitDx=0;exitDy=0;entryX=0.75;entryY=1;entryDx=0;entryDy=0;" edge="1" parent="1" source="aEKwAZtk2zb0L5Yq_iMu-45" target="aEKwAZtk2zb0L5Yq_iMu-43">
          <mxGeometry width="50" height="50" relative="1" as="geometry">
            <mxPoint x="320" y="980" as="sourcePoint" />
            <mxPoint x="370" y="930" as="targetPoint" />
          </mxGeometry>
        </mxCell>
        <mxCell id="aEKwAZtk2zb0L5Yq_iMu-49" value="业务组件" style="rounded=0;whiteSpace=wrap;html=1;" vertex="1" parent="1">
          <mxGeometry x="120" y="930" width="100" height="50" as="geometry" />
        </mxCell>
        <mxCell id="aEKwAZtk2zb0L5Yq_iMu-50" value="" style="endArrow=classic;html=1;rounded=0;entryX=0.25;entryY=1;entryDx=0;entryDy=0;exitX=1;exitY=0;exitDx=0;exitDy=0;" edge="1" parent="1" source="aEKwAZtk2zb0L5Yq_iMu-49" target="aEKwAZtk2zb0L5Yq_iMu-43">
          <mxGeometry width="50" height="50" relative="1" as="geometry">
            <mxPoint x="270" y="970" as="sourcePoint" />
            <mxPoint x="320" y="920" as="targetPoint" />
          </mxGeometry>
        </mxCell>
        <mxCell id="aEKwAZtk2zb0L5Yq_iMu-51" value="D-BaaS平台" style="rounded=0;whiteSpace=wrap;html=1;" vertex="1" parent="1">
          <mxGeometry x="420" y="830" width="96" height="50" as="geometry" />
        </mxCell>
        <mxCell id="aEKwAZtk2zb0L5Yq_iMu-52" value="" style="endArrow=none;html=1;rounded=0;exitX=1;exitY=0.5;exitDx=0;exitDy=0;entryX=0;entryY=0.5;entryDx=0;entryDy=0;" edge="1" parent="1" source="aEKwAZtk2zb0L5Yq_iMu-43" target="aEKwAZtk2zb0L5Yq_iMu-51">
          <mxGeometry width="50" height="50" relative="1" as="geometry">
            <mxPoint x="380" y="940" as="sourcePoint" />
            <mxPoint x="430" y="890" as="targetPoint" />
          </mxGeometry>
        </mxCell>
        <mxCell id="aEKwAZtk2zb0L5Yq_iMu-54" value="前端" style="swimlane;" vertex="1" parent="1">
          <mxGeometry x="880" y="10" width="250" height="80" as="geometry" />
        </mxCell>
        <mxCell id="aEKwAZtk2zb0L5Yq_iMu-55" value="HTML, CSS, JavaScript, ThymeLeaf" style="text;html=1;align=center;verticalAlign=middle;resizable=0;points=[];autosize=1;strokeColor=none;fillColor=none;" vertex="1" parent="aEKwAZtk2zb0L5Yq_iMu-54">
          <mxGeometry x="15" y="40" width="220" height="30" as="geometry" />
        </mxCell>
        <mxCell id="aEKwAZtk2zb0L5Yq_iMu-56" value="应用层" style="swimlane;" vertex="1" parent="1">
          <mxGeometry x="880" y="150" width="250" height="100" as="geometry">
            <mxRectangle x="280" y="120" width="80" height="30" as="alternateBounds" />
          </mxGeometry>
        </mxCell>
        <mxCell id="aEKwAZtk2zb0L5Yq_iMu-57" value="Springboot, D-BaaS连接控件, &lt;br&gt;&lt;br&gt;Thymeleaf交互控件" style="text;html=1;align=center;verticalAlign=middle;resizable=0;points=[];autosize=1;strokeColor=none;fillColor=none;" vertex="1" parent="aEKwAZtk2zb0L5Yq_iMu-56">
          <mxGeometry x="35" y="30" width="180" height="60" as="geometry" />
        </mxCell>
        <mxCell id="aEKwAZtk2zb0L5Yq_iMu-60" value="持久化层" style="swimlane;" vertex="1" parent="1">
          <mxGeometry x="915" y="310" width="180" height="80" as="geometry" />
        </mxCell>
        <mxCell id="aEKwAZtk2zb0L5Yq_iMu-61" value="MySQL, Mybatis" style="text;html=1;align=center;verticalAlign=middle;resizable=0;points=[];autosize=1;strokeColor=none;fillColor=none;" vertex="1" parent="aEKwAZtk2zb0L5Yq_iMu-60">
          <mxGeometry x="35" y="40" width="110" height="30" as="geometry" />
        </mxCell>
        <mxCell id="aEKwAZtk2zb0L5Yq_iMu-66" value="" style="shape=flexArrow;endArrow=classic;html=1;rounded=0;entryX=0.5;entryY=0;entryDx=0;entryDy=0;exitX=0.5;exitY=1;exitDx=0;exitDy=0;" edge="1" parent="1" source="aEKwAZtk2zb0L5Yq_iMu-54" target="aEKwAZtk2zb0L5Yq_iMu-56">
          <mxGeometry width="50" height="50" relative="1" as="geometry">
            <mxPoint x="970" y="90" as="sourcePoint" />
            <mxPoint x="1040" y="110" as="targetPoint" />
          </mxGeometry>
        </mxCell>
        <mxCell id="aEKwAZtk2zb0L5Yq_iMu-69" value="Nginx" style="edgeLabel;html=1;align=center;verticalAlign=middle;resizable=0;points=[];" vertex="1" connectable="0" parent="aEKwAZtk2zb0L5Yq_iMu-66">
          <mxGeometry x="-0.3778" y="-2" relative="1" as="geometry">
            <mxPoint as="offset" />
          </mxGeometry>
        </mxCell>
        <mxCell id="aEKwAZtk2zb0L5Yq_iMu-71" value="" style="shape=flexArrow;endArrow=classic;html=1;rounded=0;entryX=0.5;entryY=0;entryDx=0;entryDy=0;exitX=0.5;exitY=1;exitDx=0;exitDy=0;" edge="1" parent="1">
          <mxGeometry width="50" height="50" relative="1" as="geometry">
            <mxPoint x="1004.5" y="250" as="sourcePoint" />
            <mxPoint x="1004.5" y="310" as="targetPoint" />
          </mxGeometry>
        </mxCell>
        <mxCell id="aEKwAZtk2zb0L5Yq_iMu-74" value="Druid" style="edgeLabel;html=1;align=center;verticalAlign=middle;resizable=0;points=[];" vertex="1" connectable="0" parent="aEKwAZtk2zb0L5Yq_iMu-71">
          <mxGeometry x="-0.4667" y="-4" relative="1" as="geometry">
            <mxPoint as="offset" />
          </mxGeometry>
        </mxCell>
        <mxCell id="aEKwAZtk2zb0L5Yq_iMu-75" value="D-BaaS平台" style="swimlane;" vertex="1" parent="1">
          <mxGeometry x="1200" y="160" width="180" height="80" as="geometry" />
        </mxCell>
        <mxCell id="aEKwAZtk2zb0L5Yq_iMu-76" value="&lt;div data-docx-has-block-data=&quot;false&quot; data-page-id=&quot;doxcnXTw12kDMMco2AEQaZOEjWh&quot;&gt;&lt;div class=&quot;old-record-id-doxcnaWSK2wu8Mky4MXtQYUJPQh&quot;&gt;Ethereum, Solidity&lt;/div&gt;&lt;/div&gt;" style="text;html=1;align=center;verticalAlign=middle;resizable=0;points=[];autosize=1;strokeColor=none;fillColor=none;" vertex="1" parent="aEKwAZtk2zb0L5Yq_iMu-75">
          <mxGeometry x="30" y="40" width="120" height="30" as="geometry" />
        </mxCell>
        <mxCell id="aEKwAZtk2zb0L5Yq_iMu-78" value="" style="shape=flexArrow;endArrow=classic;html=1;rounded=0;entryX=1;entryY=0.5;entryDx=0;entryDy=0;exitX=0;exitY=0.5;exitDx=0;exitDy=0;" edge="1" parent="1" source="aEKwAZtk2zb0L5Yq_iMu-75" target="aEKwAZtk2zb0L5Yq_iMu-56">
          <mxGeometry width="50" height="50" relative="1" as="geometry">
            <mxPoint x="1170" y="280" as="sourcePoint" />
            <mxPoint x="1170" y="340" as="targetPoint" />
          </mxGeometry>
        </mxCell>
      </root>
    </mxGraphModel>
  </diagram>
</mxfile>
